<svg width="27" height="20" viewBox="0 0 27 20" fill="none" xmlns="http://www.w3.org/2000/svg">
<path fill-rule="evenodd" clip-rule="evenodd" d="M16.9985 17.5C16.9985 17.721 16.9107 17.933 16.7544 18.0893C16.5981 18.2455 16.3861 18.3333 16.1651 18.3333H2.83179C2.61077 18.3333 2.39881 18.2455 2.24253 18.0893C2.08625 17.933 1.99845 17.721 1.99845 17.5V2.5C1.99845 2.27899 2.08625 2.06702 2.24253 1.91074C2.39881 1.75446 2.61077 1.66667 2.83179 1.66667H16.1651C16.3861 1.66667 16.5981 1.75446 16.7544 1.91074C16.9107 2.06702 16.9985 2.27899 16.9985 2.5V5.83333C16.9985 6.05435 17.0863 6.26631 17.2425 6.42259C17.3988 6.57887 17.6108 6.66667 17.8318 6.66667C18.0528 6.66667 18.2648 6.57887 18.421 6.42259C18.5773 6.26631 18.6651 6.05435 18.6651 5.83333V2.5C18.6651 1.83696 18.4017 1.20107 17.9329 0.732233C17.464 0.263392 16.8282 0 16.1651 0H2.83179C2.16875 0 1.53286 0.263392 1.06402 0.732233C0.595179 1.20107 0.331787 1.83696 0.331787 2.5L0.331787 17.5C0.331787 18.163 0.595179 18.7989 1.06402 19.2678C1.53286 19.7366 2.16875 20 2.83179 20H16.1651C16.8282 20 17.464 19.7366 17.9329 19.2678C18.4017 18.7989 18.6651 18.163 18.6651 17.5V14.1667C18.6651 13.9457 18.5773 13.7337 18.421 13.5774C18.2648 13.4211 18.0528 13.3333 17.8318 13.3333C17.6108 13.3333 17.3988 13.4211 17.2425 13.5774C17.0863 13.7337 16.9985 13.9457 16.9985 14.1667V17.5Z" fill="#FE7F63"/>
<path fill-rule="evenodd" clip-rule="evenodd" d="M26.755 10.59C26.8326 10.5126 26.8942 10.4206 26.9362 10.3194C26.9782 10.2182 26.9999 10.1096 26.9999 10C26.9999 9.89039 26.9782 9.78186 26.9362 9.68062C26.8942 9.57937 26.8326 9.48741 26.755 9.41001L21.755 4.41001C21.5986 4.25353 21.3863 4.16562 21.165 4.16562C20.9437 4.16562 20.7315 4.25353 20.575 4.41001C20.4186 4.56648 20.3307 4.77871 20.3307 5.00001C20.3307 5.2213 20.4186 5.43353 20.575 5.59001L24.1534 9.16667H9.49837C9.27736 9.16667 9.0654 9.25447 8.90912 9.41075C8.75284 9.56703 8.66504 9.77899 8.66504 10C8.66504 10.221 8.75284 10.433 8.90912 10.5893C9.0654 10.7455 9.27736 10.8333 9.49837 10.8333H24.1534L20.575 14.41C20.4186 14.5665 20.3307 14.7787 20.3307 15C20.3307 15.2213 20.4186 15.4335 20.575 15.59C20.7315 15.7465 20.9437 15.8344 21.165 15.8344C21.3863 15.8344 21.5986 15.7465 21.755 15.59L26.755 10.59Z" fill="#FE7F63"/>
</svg>
