<svg width="14" height="17" viewBox="0 0 14 17" fill="none" xmlns="http://www.w3.org/2000/svg">
<path d="M0.285645 1.07143C0.285645 0.919876 0.345849 0.774531 0.453012 0.667368C0.560176 0.560204 0.705521 0.5 0.857073 0.5H13.4285C13.5801 0.5 13.7254 0.560204 13.8326 0.667368C13.9397 0.774531 13.9999 0.919876 13.9999 1.07143C13.9999 1.22298 13.9397 1.36833 13.8326 1.47549C13.7254 1.58265 13.5801 1.64286 13.4285 1.64286H12.2856V2.78571C12.2859 3.75604 12.0116 4.70663 11.4945 5.52768C10.9774 6.34874 10.2386 7.00675 9.36336 7.42571C9.03193 7.58457 8.85707 7.85657 8.85707 8.1V8.9C8.85707 9.14343 9.03307 9.41543 9.36336 9.57429C10.2386 9.99325 10.9774 10.6513 11.4945 11.4723C12.0116 12.2934 12.2859 13.244 12.2856 14.2143V15.3571H13.4285C13.5801 15.3571 13.7254 15.4173 13.8326 15.5245C13.9397 15.6317 13.9999 15.777 13.9999 15.9286C13.9999 16.0801 13.9397 16.2255 13.8326 16.3326C13.7254 16.4398 13.5801 16.5 13.4285 16.5H0.857073C0.705521 16.5 0.560176 16.4398 0.453012 16.3326C0.345849 16.2255 0.285645 16.0801 0.285645 15.9286C0.285645 15.777 0.345849 15.6317 0.453012 15.5245C0.560176 15.4173 0.705521 15.3571 0.857073 15.3571H1.99993V14.2143C1.9997 13.244 2.27397 12.2934 2.79107 11.4723C3.30817 10.6513 4.047 9.99325 4.92222 9.57429C5.25364 9.41543 5.4285 9.14343 5.4285 8.9V8.1C5.4285 7.85657 5.2525 7.58457 4.92222 7.42571C4.047 7.00675 3.30817 6.34874 2.79107 5.52768C2.27397 4.70663 1.9997 3.75604 1.99993 2.78571V1.64286H0.857073C0.705521 1.64286 0.560176 1.58265 0.453012 1.47549C0.345849 1.36833 0.285645 1.22298 0.285645 1.07143ZM3.14279 1.64286V2.78571C3.14258 3.54048 3.35592 4.2799 3.75816 4.91855C4.1604 5.5572 4.73512 6.06901 5.41593 6.39486C6.02507 6.68743 6.57136 7.29886 6.57136 8.09886V8.90114C6.57136 9.70114 6.02507 10.3126 5.41593 10.6051C4.73512 10.931 4.1604 11.4428 3.75816 12.0814C3.35592 12.7201 3.14258 13.4595 3.14279 14.2143V15.3571H11.1428V14.2143C11.143 13.4595 10.9297 12.7201 10.5274 12.0814C10.1252 11.4428 9.55045 10.931 8.86964 10.6051C8.2605 10.3126 7.71422 9.70229 7.71422 8.90114V8.09886C7.71422 7.29886 8.2605 6.68743 8.86964 6.39486C9.55045 6.06901 10.1252 5.5572 10.5274 4.91855C10.9297 4.2799 11.143 3.54048 11.1428 2.78571V1.64286H3.14279Z" fill="#F2F3F9" fill-opacity="0.5"/>
</svg>
