<svg width="92" height="48" viewBox="0 0 92 48" fill="none" xmlns="http://www.w3.org/2000/svg">
<path d="M23.9688 35.3125C23.6458 35.2604 23.3021 35.224 22.9375 35.2031C22.5833 35.1927 22.2135 35.1875 21.8281 35.1875C21.3594 35.1875 20.8906 35.1979 20.4219 35.2188C19.9531 35.25 19.4948 35.2865 19.0469 35.3281C18.599 35.3698 18.1719 35.4167 17.7656 35.4688C17.3594 35.5208 16.9948 35.5677 16.6719 35.6094C16.8073 35.0781 16.9271 34.4271 17.0312 33.6562C17.1458 32.875 17.2396 32.0208 17.3125 31.0938C17.3854 30.1667 17.4375 29.1927 17.4688 28.1719C17.5104 27.1406 17.5312 26.099 17.5312 25.0469C17.5312 24.8906 17.526 24.6823 17.5156 24.4219C17.5156 24.1615 17.5052 23.8802 17.4844 23.5781C17.4635 23.276 17.4271 22.974 17.375 22.6719C17.3333 22.3594 17.2656 22.0781 17.1719 21.8281C17.0885 21.5781 16.9792 21.375 16.8438 21.2188C16.7188 21.0625 16.5573 20.9844 16.3594 20.9844C16.151 20.9844 15.9479 21.1146 15.75 21.375C15.5521 21.6354 15.3594 21.9844 15.1719 22.4219C15.2031 23.0052 15.2292 23.6979 15.25 24.5C15.2708 25.2917 15.2865 26.1198 15.2969 26.9844C15.3073 27.849 15.3125 28.7031 15.3125 29.5469C15.3229 30.3906 15.3333 31.1458 15.3438 31.8125C15.3542 32.4792 15.3646 33.0208 15.375 33.4375C15.3854 33.8438 15.401 34.0469 15.4219 34.0469C14.9531 33.974 14.5208 33.9167 14.125 33.875C13.7396 33.8333 13.349 33.8125 12.9531 33.8125C12.4323 33.8125 11.8698 33.8542 11.2656 33.9375C10.6615 34.0208 9.9375 34.151 9.09375 34.3281C9.22917 33.3385 9.35417 32.3177 9.46875 31.2656C9.5625 30.3594 9.65104 29.3594 9.73438 28.2656C9.81771 27.1719 9.85938 26.099 9.85938 25.0469C9.85938 24.8906 9.85417 24.6823 9.84375 24.4219C9.84375 24.1615 9.83333 23.8802 9.8125 23.5781C9.79167 23.276 9.75521 22.974 9.70312 22.6719C9.66146 22.3594 9.59375 22.0781 9.5 21.8281C9.41667 21.5781 9.30729 21.375 9.17188 21.2188C9.03646 21.0625 8.86979 20.9844 8.67188 20.9844C8.33854 20.9844 8.0625 21.0833 7.84375 21.2812C7.63542 21.4688 7.46875 21.724 7.34375 22.0469C7.21875 22.3698 7.13021 22.7448 7.07812 23.1719C7.03646 23.5885 7.01562 24.0312 7.01562 24.5C7.01562 25.3854 7.03646 26.2812 7.07812 27.1875C7.11979 28.0938 7.1875 28.9948 7.28125 29.8906C7.375 30.776 7.49479 31.6458 7.64062 32.5C7.78646 33.3542 7.96875 34.1667 8.1875 34.9375C8.01042 34.9271 7.80208 34.9115 7.5625 34.8906C7.35417 34.8802 7.10938 34.8698 6.82812 34.8594C6.54688 34.849 6.22396 34.8438 5.85938 34.8438C5.18229 34.8438 4.40104 34.875 3.51562 34.9375C2.63021 34.9896 1.67188 35.0938 0.640625 35.25C0.765625 34.6667 0.875 33.9531 0.96875 33.1094C1.0625 32.2656 1.14062 31.349 1.20312 30.3594C1.26562 29.3698 1.3125 28.3385 1.34375 27.2656C1.38542 26.1823 1.40625 25.1146 1.40625 24.0625C1.40625 23.2812 1.39583 22.5156 1.375 21.7656C1.35417 21.0156 1.32292 20.3073 1.28125 19.6406C1.25 18.974 1.20312 18.3594 1.14062 17.7969C1.07812 17.2344 1.00521 16.75 0.921875 16.3438C1.76562 16.4896 2.54688 16.5938 3.26562 16.6562C3.98438 16.7083 4.63542 16.7344 5.21875 16.7344C5.59375 16.7344 5.92708 16.7292 6.21875 16.7188C6.52083 16.6979 6.77604 16.6771 6.98438 16.6562C7.23438 16.625 7.45312 16.5938 7.64062 16.5625C7.57812 16.8333 7.52083 17.125 7.46875 17.4375C7.42708 17.7396 7.38021 18.0677 7.32812 18.4219C7.91146 17.6719 8.53646 17.1094 9.20312 16.7344C9.86979 16.349 10.526 16.1562 11.1719 16.1562C12.0677 16.1562 12.7969 16.3802 13.3594 16.8281C13.9323 17.2656 14.3646 17.9688 14.6562 18.9375C15.2708 18 15.9427 17.3021 16.6719 16.8438C17.4115 16.3854 18.1354 16.1562 18.8438 16.1562C19.5938 16.1562 20.2604 16.3125 20.8438 16.625C21.4375 16.9271 21.9323 17.4062 22.3281 18.0625C22.724 18.7188 23.026 19.5573 23.2344 20.5781C23.4427 21.599 23.5469 22.8229 23.5469 24.25C23.5469 25.2292 23.5469 26.25 23.5469 27.3125C23.5573 28.375 23.5729 29.4062 23.5938 30.4062C23.625 31.3958 23.6667 32.3229 23.7188 33.1875C23.7812 34.0417 23.8646 34.75 23.9688 35.3125ZM34.4788 34.9375C34.3017 34.9271 34.0933 34.9115 33.8538 34.8906C33.6454 34.8802 33.4006 34.8698 33.1194 34.8594C32.8381 34.849 32.5152 34.8438 32.1506 34.8438C31.4735 34.8438 30.6923 34.875 29.8069 34.9375C28.9215 34.9896 27.9631 35.0938 26.9319 35.25C27.1298 34.8542 27.2965 34.3594 27.4319 33.7656C27.5673 33.1615 27.6767 32.5208 27.76 31.8438C27.8538 31.1562 27.9215 30.4635 27.9631 29.7656C28.0152 29.0677 28.0517 28.4271 28.0725 27.8438C28.0933 27.2604 28.1038 26.7656 28.1038 26.3594C28.1142 25.9531 28.1194 25.6979 28.1194 25.5938C28.0985 24.2396 28.0517 22.974 27.9788 21.7969C27.9475 21.2969 27.9058 20.7917 27.8538 20.2812C27.8121 19.7708 27.76 19.2917 27.6975 18.8438C27.635 18.3854 27.5621 17.9792 27.4788 17.625C27.4058 17.2604 27.3173 16.974 27.2131 16.7656C28.0569 16.9115 28.8381 17.0104 29.5569 17.0625C30.2756 17.1146 30.9267 17.1406 31.51 17.1406C31.885 17.1406 32.2183 17.1354 32.51 17.125C32.8121 17.1042 33.0673 17.0833 33.2756 17.0625C33.5256 17.0417 33.7444 17.0156 33.9319 16.9844C33.7444 17.9219 33.5881 19.0521 33.4631 20.375C33.3485 21.6979 33.2913 23.1146 33.2913 24.625C33.2913 25.4896 33.3121 26.3646 33.3538 27.25C33.3954 28.1354 33.4631 29.0208 33.5569 29.9062C33.6506 30.7812 33.7704 31.6458 33.9163 32.5C34.0725 33.3438 34.26 34.1562 34.4788 34.9375ZM27.3069 12.5938C27.3069 12.1146 27.3954 11.6667 27.5725 11.25C27.76 10.8229 28.01 10.4531 28.3225 10.1406C28.6454 9.81771 29.0204 9.56771 29.4475 9.39062C29.8746 9.20312 30.3277 9.10938 30.8069 9.10938C31.286 9.10938 31.734 9.20312 32.1506 9.39062C32.5777 9.56771 32.9475 9.81771 33.26 10.1406C33.5829 10.4531 33.8329 10.8229 34.01 11.25C34.1975 11.6667 34.2913 12.1146 34.2913 12.5938C34.2913 13.0729 34.1975 13.526 34.01 13.9531C33.8329 14.3802 33.5829 14.7552 33.26 15.0781C32.9475 15.3906 32.5777 15.6406 32.1506 15.8281C31.734 16.0052 31.286 16.0938 30.8069 16.0938C30.3277 16.0938 29.8746 16.0052 29.4475 15.8281C29.0204 15.6406 28.6454 15.3906 28.3225 15.0781C28.01 14.7552 27.76 14.3802 27.5725 13.9531C27.3954 13.526 27.3069 13.0729 27.3069 12.5938ZM53.5044 35.2188C53.3065 35.1979 53.0773 35.1771 52.8169 35.1562C52.5981 35.1354 52.3325 35.1198 52.02 35.1094C51.7179 35.099 51.3846 35.0938 51.02 35.0938C50.4992 35.0938 49.9263 35.1146 49.3013 35.1562C48.6867 35.1979 48.0513 35.276 47.395 35.3906L47.4575 31C47.0617 32.5521 46.4783 33.75 45.7075 34.5938C44.9471 35.4375 44.0513 35.8594 43.02 35.8594C42.6971 35.8594 42.3325 35.8177 41.9263 35.7344C41.52 35.651 41.1033 35.4896 40.6763 35.25C40.2596 35.0208 39.8481 34.6979 39.4419 34.2812C39.046 33.8646 38.6919 33.3281 38.3794 32.6719C38.0669 32.0052 37.8169 31.2031 37.6294 30.2656C37.4419 29.3177 37.3481 28.1979 37.3481 26.9062C37.3481 25.1562 37.5252 23.6615 37.8794 22.4219C38.2335 21.1719 38.6867 20.151 39.2388 19.3594C39.7908 18.5677 40.4002 17.9896 41.0669 17.625C41.7335 17.2604 42.3846 17.0781 43.02 17.0781C43.5617 17.0781 44.0513 17.1562 44.4888 17.3125C44.9367 17.4583 45.3325 17.651 45.6763 17.8906C46.02 18.1198 46.3169 18.3802 46.5669 18.6719C46.8169 18.9635 47.02 19.2552 47.1763 19.5469C47.145 19.1927 47.0981 18.8177 47.0356 18.4219C46.9731 18.0156 46.9002 17.599 46.8169 17.1719C47.494 17.3073 48.1815 17.3958 48.8794 17.4375C49.5773 17.4792 50.2231 17.5 50.8169 17.5C51.5252 17.5 52.0981 17.4844 52.5356 17.4531C52.7856 17.4427 53.0148 17.4271 53.2231 17.4062C53.1085 17.9271 53.0044 18.5104 52.9106 19.1562C52.8169 19.8021 52.7335 20.4948 52.6606 21.2344C52.5981 21.9635 52.546 22.7344 52.5044 23.5469C52.4731 24.349 52.4575 25.1719 52.4575 26.0156C52.4575 27.5885 52.5356 29.1667 52.6919 30.75C52.8481 32.3333 53.119 33.8229 53.5044 35.2188ZM47.0825 26.2656V23.7344C47.0825 23.4531 47.0669 23.1667 47.0356 22.875C47.0044 22.5833 46.9315 22.3177 46.8169 22.0781C46.7127 21.8385 46.5565 21.6458 46.3481 21.5C46.1398 21.3438 45.8585 21.2656 45.5044 21.2656C45.1294 21.2656 44.8169 21.3958 44.5669 21.6562C44.3273 21.9167 44.1294 22.276 43.9731 22.7344C43.8273 23.1823 43.7231 23.7188 43.6606 24.3438C43.6085 24.9583 43.5825 25.6302 43.5825 26.3594C43.5825 26.776 43.6085 27.1979 43.6606 27.625C43.7231 28.0521 43.8221 28.4427 43.9575 28.7969C44.0929 29.1406 44.2752 29.4219 44.5044 29.6406C44.7335 29.8594 45.0148 29.9688 45.3481 29.9688C45.7231 29.9688 46.0252 29.8385 46.2544 29.5781C46.4835 29.3177 46.6554 28.9948 46.77 28.6094C46.895 28.224 46.9783 27.8229 47.02 27.4062C47.0617 26.9792 47.0825 26.599 47.0825 26.2656ZM79.8737 35.3125C79.5508 35.2604 79.2071 35.224 78.8425 35.2031C78.4883 35.1927 78.1185 35.1875 77.7331 35.1875C77.2644 35.1875 76.7956 35.1979 76.3269 35.2188C75.8581 35.25 75.3998 35.2865 74.9519 35.3281C74.504 35.3698 74.0769 35.4167 73.6706 35.4688C73.2644 35.5208 72.8998 35.5677 72.5769 35.6094C72.7123 35.0781 72.8321 34.4271 72.9362 33.6562C73.0508 32.875 73.1446 32.0208 73.2175 31.0938C73.2904 30.1667 73.3425 29.1927 73.3737 28.1719C73.4154 27.1406 73.4362 26.099 73.4362 25.0469C73.4362 24.8906 73.431 24.6823 73.4206 24.4219C73.4206 24.1615 73.4102 23.8802 73.3894 23.5781C73.3685 23.276 73.3321 22.974 73.28 22.6719C73.2383 22.3594 73.1706 22.0781 73.0769 21.8281C72.9935 21.5781 72.8842 21.375 72.7487 21.2188C72.6237 21.0625 72.4623 20.9844 72.2644 20.9844C72.056 20.9844 71.8529 21.1146 71.655 21.375C71.4571 21.6354 71.2644 21.9844 71.0769 22.4219C71.1081 23.0052 71.1342 23.6979 71.155 24.5C71.1758 25.2917 71.1915 26.1198 71.2019 26.9844C71.2123 27.849 71.2175 28.7031 71.2175 29.5469C71.2279 30.3906 71.2383 31.1458 71.2487 31.8125C71.2592 32.4792 71.2696 33.0208 71.28 33.4375C71.2904 33.8438 71.306 34.0469 71.3269 34.0469C70.8581 33.974 70.4258 33.9167 70.03 33.875C69.6446 33.8333 69.254 33.8125 68.8581 33.8125C68.3373 33.8125 67.7748 33.8542 67.1706 33.9375C66.5665 34.0208 65.8425 34.151 64.9987 34.3281C65.1342 33.3385 65.2592 32.3177 65.3737 31.2656C65.4675 30.3594 65.556 29.3594 65.6394 28.2656C65.7227 27.1719 65.7644 26.099 65.7644 25.0469C65.7644 24.8906 65.7592 24.6823 65.7487 24.4219C65.7487 24.1615 65.7383 23.8802 65.7175 23.5781C65.6967 23.276 65.6602 22.974 65.6081 22.6719C65.5665 22.3594 65.4987 22.0781 65.405 21.8281C65.3217 21.5781 65.2123 21.375 65.0769 21.2188C64.9415 21.0625 64.7748 20.9844 64.5769 20.9844C64.2435 20.9844 63.9675 21.0833 63.7487 21.2812C63.5404 21.4688 63.3737 21.724 63.2487 22.0469C63.1237 22.3698 63.0352 22.7448 62.9831 23.1719C62.9415 23.5885 62.9206 24.0312 62.9206 24.5C62.9206 25.3854 62.9415 26.2812 62.9831 27.1875C63.0248 28.0938 63.0925 28.9948 63.1862 29.8906C63.28 30.776 63.3998 31.6458 63.5456 32.5C63.6915 33.3542 63.8737 34.1667 64.0925 34.9375C63.9154 34.9271 63.7071 34.9115 63.4675 34.8906C63.2592 34.8802 63.0144 34.8698 62.7331 34.8594C62.4519 34.849 62.129 34.8438 61.7644 34.8438C61.0873 34.8438 60.306 34.875 59.4206 34.9375C58.5352 34.9896 57.5769 35.0938 56.5456 35.25C56.6706 34.6667 56.78 33.9531 56.8737 33.1094C56.9675 32.2656 57.0456 31.349 57.1081 30.3594C57.1706 29.3698 57.2175 28.3385 57.2487 27.2656C57.2904 26.1823 57.3112 25.1146 57.3112 24.0625C57.3112 23.2812 57.3008 22.5156 57.28 21.7656C57.2592 21.0156 57.2279 20.3073 57.1862 19.6406C57.155 18.974 57.1081 18.3594 57.0456 17.7969C56.9831 17.2344 56.9102 16.75 56.8269 16.3438C57.6706 16.4896 58.4519 16.5938 59.1706 16.6562C59.8894 16.7083 60.5404 16.7344 61.1237 16.7344C61.4987 16.7344 61.8321 16.7292 62.1237 16.7188C62.4258 16.6979 62.681 16.6771 62.8894 16.6562C63.1394 16.625 63.3581 16.5938 63.5456 16.5625C63.4831 16.8333 63.4258 17.125 63.3737 17.4375C63.3321 17.7396 63.2852 18.0677 63.2331 18.4219C63.8165 17.6719 64.4415 17.1094 65.1081 16.7344C65.7748 16.349 66.431 16.1562 67.0769 16.1562C67.9727 16.1562 68.7019 16.3802 69.2644 16.8281C69.8373 17.2656 70.2696 17.9688 70.5612 18.9375C71.1758 18 71.8477 17.3021 72.5769 16.8438C73.3165 16.3854 74.0404 16.1562 74.7487 16.1562C75.4987 16.1562 76.1654 16.3125 76.7487 16.625C77.3425 16.9271 77.8373 17.4062 78.2331 18.0625C78.629 18.7188 78.931 19.5573 79.1394 20.5781C79.3477 21.599 79.4519 22.8229 79.4519 24.25C79.4519 25.2292 79.4519 26.25 79.4519 27.3125C79.4623 28.375 79.4779 29.4062 79.4987 30.4062C79.53 31.3958 79.5717 32.3229 79.6237 33.1875C79.6862 34.0417 79.7696 34.75 79.8737 35.3125ZM91.6025 11.9219C91.2067 12.9219 90.8577 13.9948 90.5556 15.1406C90.264 16.276 90.0192 17.4479 89.8213 18.6562C89.6233 19.8646 89.4723 21.0938 89.3681 22.3438C89.2744 23.5938 89.2275 24.8281 89.2275 26.0469C89.2275 26.4427 89.2327 26.8333 89.2431 27.2188C89.264 27.6042 89.2848 27.9896 89.3056 28.375C88.7848 28.2604 88.2744 28.1823 87.7744 28.1406C87.2848 28.0885 86.79 28.0625 86.29 28.0625C85.9879 28.0625 85.6806 28.0729 85.3681 28.0938C85.066 28.1042 84.764 28.1354 84.4619 28.1875C84.4827 27.8021 84.4983 27.4062 84.5088 27C84.5192 26.5833 84.5244 26.1771 84.5244 25.7812C84.5244 24.4583 84.4671 23.1302 84.3525 21.7969C84.2483 20.4531 84.1025 19.1875 83.915 18C83.7379 16.8021 83.5244 15.7135 83.2744 14.7344C83.0244 13.7448 82.7588 12.9375 82.4775 12.3125C82.8421 12.3646 83.29 12.4062 83.8213 12.4375C84.3629 12.4583 84.941 12.4688 85.5556 12.4688C86.0973 12.4688 86.6494 12.4583 87.2119 12.4375C87.7848 12.4167 88.3369 12.3854 88.8681 12.3438C89.4098 12.3021 89.915 12.2448 90.3838 12.1719C90.8525 12.099 91.2588 12.0156 91.6025 11.9219ZM83.415 32.5C83.415 32.0521 83.4983 31.6302 83.665 31.2344C83.8421 30.8281 84.0765 30.474 84.3681 30.1719C84.6702 29.8698 85.0192 29.6354 85.415 29.4688C85.8213 29.2917 86.2535 29.2031 86.7119 29.2031C87.1598 29.2031 87.5817 29.2917 87.9775 29.4688C88.3838 29.6354 88.7379 29.8698 89.04 30.1719C89.3421 30.474 89.5765 30.8281 89.7431 31.2344C89.9202 31.6302 90.0088 32.0521 90.0088 32.5C90.0088 32.9583 89.9202 33.3906 89.7431 33.7969C89.5765 34.1927 89.3421 34.5417 89.04 34.8438C88.7379 35.1354 88.3838 35.3646 87.9775 35.5312C87.5817 35.7083 87.1598 35.7969 86.7119 35.7969C86.2535 35.7969 85.8213 35.7083 85.415 35.5312C85.0192 35.3646 84.6702 35.1354 84.3681 34.8438C84.0765 34.5417 83.8421 34.1927 83.665 33.7969C83.4983 33.3906 83.415 32.9583 83.415 32.5Z" fill="#F2F3F9"/>
</svg>
