<svg width="52" height="40" viewBox="0 0 52 40" fill="none" xmlns="http://www.w3.org/2000/svg">
<path d="M12.8554 40H39.5427C43.2215 40 46.2145 37.0071 46.2145 33.3282V30.4733H6.18359V33.3282C6.18359 37.0071 9.17657 40 12.8554 40Z" fill="#F2F3F9"/>
<path d="M3.27942 24.7525C3.29429 24.7523 3.30897 24.7502 3.32403 24.7502H49.0736C49.0887 24.7502 49.1032 24.7523 49.1182 24.7525C50.6733 24.7289 51.9318 23.4555 51.9318 21.8912C51.9318 20.3169 50.6501 19.0359 49.0747 19.0359H3.32269C1.74738 19.0361 0.46582 20.3169 0.46582 21.8912C0.46582 23.4555 1.72432 24.729 3.27942 24.7525Z" fill="#F2F3F9"/>
<path d="M40.6996 4.44705C36.8662 1.57931 31.7243 0 26.2214 0C20.7179 0 15.5755 1.57931 11.7419 4.44724C8.46944 6.89503 6.5388 10.0144 6.22656 13.3173H46.2149C45.9025 10.0144 43.9721 6.89503 40.6996 4.44705Z" fill="#F2F3F9"/>
</svg>
