<svg width="37" height="41" viewBox="0 0 37 41" fill="none" xmlns="http://www.w3.org/2000/svg">
<path d="M18 41.0001C19.3261 41.0001 20.5979 40.4733 21.5355 39.5356C22.4732 38.5979 23 37.3261 23 36.0001L13 36.0001C13 37.3261 13.5268 38.5979 14.4645 39.5356C15.4021 40.4733 16.6739 41.0001 18 41.0001ZM18 5.79505L16.0075 6.19755C13.7474 6.65805 11.7158 7.88531 10.2566 9.67161C8.79743 11.4579 8.00025 13.6935 8 16.0001C8 17.5701 7.665 21.4925 6.8525 25.355C6.4525 27.2725 5.9125 29.2701 5.195 31.0001L30.805 31.0001C30.0875 29.2701 29.55 27.275 29.1475 25.355C28.335 21.4925 28 17.5701 28 16.0001C27.9992 13.6939 27.2017 11.4589 25.7426 9.67314C24.2834 7.88736 22.2522 6.66047 19.9925 6.20005L18 5.79505ZM33.55 31.0001C34.1075 32.1176 34.7525 33.0026 35.5 33.5001L0.5 33.5001C1.2475 33.0026 1.8925 32.1176 2.45 31.0001C4.7 26.5001 5.5 18.2001 5.5 16.0001C5.5 9.95005 9.8 4.90005 15.5125 3.74755C15.4776 3.39994 15.516 3.04887 15.6251 2.71698C15.7342 2.3851 15.9117 2.07978 16.1461 1.8207C16.3804 1.56162 16.6665 1.35454 16.9858 1.21281C17.3052 1.07109 17.6506 0.997864 18 0.997864C18.3494 0.997864 18.6948 1.07109 19.0142 1.21281C19.3335 1.35454 19.6196 1.56162 19.8539 1.8207C20.0883 2.07978 20.2658 2.3851 20.3749 2.71698C20.484 3.04887 20.5224 3.39994 20.4875 3.74755C23.3132 4.3223 25.8534 5.85595 27.6781 8.0888C29.5027 10.3217 30.4996 13.1165 30.5 16.0001C30.5 18.2001 31.3 26.5001 33.55 31.0001Z" fill="#F2F3F9"/>
<circle cx="28.499" cy="11.5145" r="7.13636" transform="rotate(-0.2043 28.499 11.5145)" fill="#F96140" stroke="#F2F3F9"/>
</svg>
