<svg width="36" height="41" viewBox="0 0 36 41" fill="none" xmlns="http://www.w3.org/2000/svg">
<path d="M18 41C19.3261 41 20.5979 40.4732 21.5355 39.5355C22.4732 38.5978 23 37.3261 23 36L13 36C13 37.3261 13.5268 38.5978 14.4645 39.5355C15.4021 40.4732 16.6739 41 18 41ZM18 5.79499L16.0075 6.19749C13.7474 6.65799 11.7158 7.88525 10.2566 9.67155C8.79743 11.4578 8.00025 13.6935 8 16C8 17.57 7.665 21.4925 6.8525 25.355C6.4525 27.2725 5.9125 29.27 5.195 31L30.805 31C30.0875 29.27 29.55 27.275 29.1475 25.355C28.335 21.4925 28 17.57 28 16C27.9992 13.6939 27.2017 11.4589 25.7426 9.67308C24.2834 7.8873 22.2522 6.6604 19.9925 6.19999L18 5.79499ZM33.55 31C34.1075 32.1175 34.7525 33.0025 35.5 33.5L0.5 33.5C1.2475 33.0025 1.8925 32.1175 2.45 31C4.7 26.5 5.5 18.2 5.5 16C5.5 9.94999 9.8 4.89999 15.5125 3.74749C15.4776 3.39987 15.516 3.04881 15.6251 2.71692C15.7342 2.38504 15.9117 2.07971 16.1461 1.82064C16.3804 1.56156 16.6665 1.35448 16.9858 1.21275C17.3052 1.07103 17.6506 0.997803 18 0.997803C18.3494 0.997803 18.6948 1.07103 19.0142 1.21275C19.3335 1.35448 19.6196 1.56156 19.8539 1.82064C20.0883 2.07971 20.2658 2.38504 20.3749 2.71692C20.484 3.04881 20.5224 3.39987 20.4875 3.74749C23.3132 4.32224 25.8534 5.85589 27.6781 8.08874C29.5027 10.3216 30.4996 13.1164 30.5 16C30.5 18.2 31.3 26.5 33.55 31Z" fill="#F2F3F9"/>
</svg>
