<svg width="41" height="41" viewBox="0 0 41 41" fill="none" xmlns="http://www.w3.org/2000/svg">
<path d="M20.2302 12.5344C19.1645 12.5382 18.1099 12.7519 17.1268 13.1632C16.1436 13.5746 15.2511 14.1756 14.5002 14.9318C13.7493 15.6881 13.1547 16.5849 12.7504 17.571C12.346 18.557 12.1399 19.6131 12.1437 20.6788C12.1475 21.7445 12.3612 22.7991 12.7725 23.7823C13.1839 24.7654 13.7848 25.6579 14.5411 26.4088C15.2974 27.1597 16.1942 27.7543 17.1802 28.1586C18.1663 28.563 19.2223 28.7691 20.2881 28.7653C22.4404 28.7577 24.5016 27.8953 26.0181 26.3679C27.5346 24.8405 28.3823 22.7733 28.3746 20.6209C28.3669 18.4686 27.5045 16.4074 25.9772 14.8909C24.4498 13.3744 22.3826 12.5267 20.2302 12.5344ZM14.6438 20.6699C14.6385 19.1806 15.225 17.7502 16.2744 16.6934C17.3237 15.6366 18.7498 15.0399 20.2391 15.0346C21.7284 15.0292 23.1588 15.6158 24.2156 16.6651C25.2724 17.7144 25.8691 19.1406 25.8745 20.6298C25.8798 22.1191 25.2932 23.5495 24.2439 24.6063C23.1946 25.6632 21.7684 26.2599 20.2792 26.2652C18.7899 26.2705 17.3595 25.684 16.3027 24.6347C15.2458 23.5853 14.6491 22.1592 14.6438 20.6699Z" fill="#F2F3F9"/>
<path d="M24.6901 3.99037C23.3566 -0.480187 17.0112 -0.457562 15.7096 4.02239L15.4774 4.82077C15.3865 5.1335 15.2268 5.42192 15.0099 5.66489C14.7931 5.90787 14.5246 6.09923 14.2242 6.22497C13.9238 6.3507 13.599 6.40761 13.2737 6.39153C12.9485 6.37545 12.6309 6.28678 12.3444 6.13203L11.6129 5.73461C7.50472 3.51911 3.03796 8.02034 5.2852 12.1101L5.68532 12.8387C5.84211 13.1242 5.93304 13.4411 5.95144 13.7662C5.96984 14.0914 5.91525 14.4165 5.79166 14.7178C5.66807 15.0191 5.47862 15.289 5.2372 15.5076C4.99578 15.7261 4.70851 15.8879 4.39644 15.981L3.59973 16.2189C-0.870823 17.5524 -0.848198 23.8978 3.63175 25.1994L4.43013 25.4316C4.74286 25.5225 5.03128 25.6822 5.27426 25.8991C5.51723 26.1159 5.7086 26.3844 5.83433 26.6848C5.96006 26.9852 6.01698 27.31 6.00089 27.6352C5.98481 27.9605 5.89615 28.2781 5.7414 28.5646L5.34398 29.2961C3.12847 33.4043 7.62722 37.8735 11.7195 35.6238L12.4481 35.2237C12.7335 35.0669 13.0505 34.9759 13.3756 34.9575C13.7008 34.9391 14.0259 34.9937 14.3272 35.1173C14.6285 35.2409 14.8983 35.4304 15.1169 35.6718C15.3355 35.9132 15.4973 36.2005 15.5904 36.5126L15.8283 37.3093C17.1618 41.7798 23.5072 41.7572 24.8088 37.2772L25.0409 36.4789C25.1318 36.1661 25.2916 35.8777 25.5084 35.6347C25.7253 35.3918 25.9938 35.2004 26.2942 35.0747C26.5946 34.9489 26.9193 34.892 27.2446 34.9081C27.5699 34.9242 27.8874 35.0128 28.174 35.1676L28.9055 35.565C33.0136 37.783 37.4829 33.2793 35.2332 29.1895L34.833 28.4609C34.6762 28.1754 34.5853 27.8585 34.5669 27.5334C34.5485 27.2082 34.6031 26.8831 34.7267 26.5818C34.8503 26.2805 35.0397 26.0106 35.2811 25.7921C35.5226 25.5735 35.8098 25.4117 36.1219 25.3186L36.9186 25.0807C41.3892 23.7472 41.3665 17.4018 36.8866 16.1002L36.0882 15.868C35.7755 15.7771 35.4871 15.6174 35.2441 15.4006C35.0011 15.1837 34.8098 14.9152 34.684 14.6148C34.5583 14.3144 34.5014 13.9897 34.5175 13.6644C34.5335 13.3391 34.6222 13.0216 34.777 12.735L35.1744 12.0035C37.3924 7.89535 32.8886 3.4286 28.7989 5.67583L28.0703 6.07596C27.7848 6.23275 27.4679 6.32368 27.1428 6.34208C26.8176 6.36048 26.4925 6.30588 26.1911 6.1823C25.8898 6.05871 25.62 5.86926 25.4014 5.62784C25.1829 5.38642 25.0211 5.09914 24.9279 4.78707L24.6901 3.99037ZM18.1097 4.72138C18.7173 2.63157 21.6725 2.62103 22.295 4.70645L22.5328 5.50316C22.7328 6.17271 23.08 6.78902 23.5491 7.30691C24.0182 7.8248 24.5973 8.23115 25.2439 8.49615C25.8904 8.76116 26.5881 8.8781 27.2858 8.83842C27.9834 8.79874 28.6633 8.60343 29.2756 8.26681L30.0018 7.86419C31.9082 6.81982 34.0057 8.89999 32.9725 10.8163L32.5776 11.5478C32.2458 12.1626 32.0559 12.8438 32.0215 13.5415C31.9872 14.2393 32.1095 14.9358 32.3793 15.5802C32.6491 16.2246 33.0597 16.8004 33.581 17.2655C34.1022 17.7306 34.7209 18.0732 35.3917 18.2682L36.1876 18.5004C38.2774 19.108 38.288 22.0631 36.2025 22.6856L35.4058 22.9235C34.7363 23.1234 34.12 23.4707 33.6021 23.9398C33.0842 24.4089 32.6778 24.9879 32.4128 25.6345C32.1478 26.2811 32.0309 26.9788 32.0706 27.6764C32.1103 28.374 32.3056 29.0539 32.6422 29.6663L33.0448 30.3924C34.0892 32.2988 32.009 34.3964 30.0927 33.3631L29.3637 32.9682C28.7488 32.636 28.0674 32.4456 27.3693 32.4111C26.6713 32.3765 25.9744 32.4987 25.3297 32.7685C24.685 33.0384 24.1089 33.4491 23.6436 33.9706C23.1783 34.4922 22.8357 35.1112 22.6408 35.7824L22.4086 36.5782C21.801 38.6681 18.8459 38.6786 18.2234 36.5932L17.9855 35.7965C17.7855 35.1273 17.4383 34.5113 16.9694 33.9937C16.5004 33.476 15.9216 33.0699 15.2754 32.8049C14.6292 32.5399 13.9318 32.4229 13.2345 32.4623C12.5371 32.5017 11.8575 32.6967 11.2452 33.0328L10.5166 33.4354C8.61018 34.4798 6.51262 32.3996 7.54586 30.4833L7.94079 29.7544C8.2735 29.1395 8.46433 28.458 8.49928 27.7598C8.53423 27.0616 8.41242 26.3644 8.14278 25.7195C7.87313 25.0745 7.4625 24.4981 6.94102 24.0325C6.41953 23.5669 5.80042 23.224 5.12912 23.0289L4.33073 22.7968C2.24092 22.1892 2.23039 19.234 4.31581 18.6115L5.11252 18.3737C5.78136 18.1735 6.397 17.8264 6.91437 17.3576C7.43175 16.8889 7.83776 16.3104 8.1027 15.6645C8.36764 15.0185 8.4848 14.3215 8.4456 13.6245C8.40641 12.9275 8.21186 12.248 7.87618 11.6358L7.47356 10.9072C6.42919 9.00082 8.50935 6.90326 10.4257 7.9365L11.1571 8.33142C11.7718 8.66319 12.4528 8.85327 13.1504 8.88773C13.848 8.92219 14.5445 8.80017 15.1888 8.5306C15.8332 8.26102 16.409 7.85073 16.8743 7.32977C17.3395 6.8088 17.6823 6.19037 17.8776 5.51976L18.1097 4.72138Z" fill="#F2F3F9"/>
</svg>
