<svg width="16" height="16" viewBox="0 0 16 16" fill="none" xmlns="http://www.w3.org/2000/svg">
<path d="M12.2603 11.1788L15.776 14.6945C16.0747 14.9932 16.0747 15.4774 15.776 15.776C15.4774 16.0747 14.9932 16.0747 14.6945 15.776L11.1788 12.2603C10.0013 13.2022 8.50779 13.7654 6.8827 13.7654C3.08149 13.7654 0 10.6839 0 6.8827C0 3.08149 3.08149 0 6.8827 0C10.6839 0 13.7654 3.08149 13.7654 6.8827C13.7654 8.50779 13.2022 10.0013 12.2603 11.1788ZM6.8827 12.2359C9.8392 12.2359 12.2359 9.8392 12.2359 6.8827C12.2359 3.9262 9.8392 1.52949 6.8827 1.52949C3.9262 1.52949 1.52949 3.9262 1.52949 6.8827C1.52949 9.8392 3.9262 12.2359 6.8827 12.2359Z" fill="#D9D9D9" fill-opacity="0.5"/>
</svg>
