<svg width="22" height="17" viewBox="0 0 22 17" fill="none" xmlns="http://www.w3.org/2000/svg">
<path d="M20 16.5C20 16.5 21.3333 16.5 21.3333 15.1667C21.3333 13.8333 20 9.83333 14.6667 9.83333C9.33333 9.83333 8 13.8333 8 15.1667C8 16.5 9.33333 16.5 9.33333 16.5H20ZM9.36267 15.1667C9.35282 15.1653 9.34303 15.1635 9.33333 15.1613C9.33467 14.8093 9.556 13.788 10.3467 12.868C11.0827 12.0053 12.376 11.1667 14.6667 11.1667C16.956 11.1667 18.2493 12.0067 18.9867 12.868C19.7773 13.788 19.9973 14.8107 20 15.1613L19.9893 15.164C19.9831 15.165 19.9769 15.1659 19.9707 15.1667H9.36267ZM14.6667 7.16667C15.3739 7.16667 16.0522 6.88572 16.5523 6.38562C17.0524 5.88552 17.3333 5.20724 17.3333 4.5C17.3333 3.79276 17.0524 3.11448 16.5523 2.61438C16.0522 2.11428 15.3739 1.83333 14.6667 1.83333C13.9594 1.83333 13.2811 2.11428 12.781 2.61438C12.281 3.11448 12 3.79276 12 4.5C12 5.20724 12.281 5.88552 12.781 6.38562C13.2811 6.88572 13.9594 7.16667 14.6667 7.16667ZM18.6667 4.5C18.6667 5.02529 18.5632 5.54543 18.3622 6.03073C18.1612 6.51604 17.8665 6.95699 17.4951 7.32843C17.1237 7.69986 16.6827 7.9945 16.1974 8.19552C15.7121 8.39654 15.192 8.5 14.6667 8.5C14.1414 8.5 13.6212 8.39654 13.1359 8.19552C12.6506 7.9945 12.2097 7.69986 11.8382 7.32843C11.4668 6.95699 11.1722 6.51604 10.9711 6.03073C10.7701 5.54543 10.6667 5.02529 10.6667 4.5C10.6667 3.43913 11.0881 2.42172 11.8382 1.67157C12.5884 0.921427 13.6058 0.5 14.6667 0.5C15.7275 0.5 16.7449 0.921427 17.4951 1.67157C18.2452 2.42172 18.6667 3.43913 18.6667 4.5ZM9.248 10.2067C8.71464 10.0387 8.16485 9.92831 7.608 9.87733C7.29511 9.84758 6.98097 9.8329 6.66667 9.83333C1.33333 9.83333 0 13.8333 0 15.1667C0 16.056 0.444 16.5 1.33333 16.5H6.95467C6.75701 16.0838 6.65843 15.6274 6.66667 15.1667C6.66667 13.82 7.16933 12.444 8.12 11.2947C8.444 10.9027 8.82133 10.536 9.248 10.2067ZM6.56 11.1667C5.77087 12.3524 5.34459 13.7424 5.33333 15.1667H1.33333C1.33333 14.82 1.552 13.7933 2.34667 12.868C3.07333 12.02 4.336 11.1933 6.56 11.168V11.1667ZM2 5.16667C2 4.1058 2.42143 3.08839 3.17157 2.33824C3.92172 1.58809 4.93913 1.16667 6 1.16667C7.06087 1.16667 8.07828 1.58809 8.82843 2.33824C9.57857 3.08839 10 4.1058 10 5.16667C10 6.22753 9.57857 7.24495 8.82843 7.99509C8.07828 8.74524 7.06087 9.16667 6 9.16667C4.93913 9.16667 3.92172 8.74524 3.17157 7.99509C2.42143 7.24495 2 6.22753 2 5.16667ZM6 2.5C5.29276 2.5 4.61448 2.78095 4.11438 3.28105C3.61428 3.78115 3.33333 4.45942 3.33333 5.16667C3.33333 5.87391 3.61428 6.55219 4.11438 7.05229C4.61448 7.55238 5.29276 7.83333 6 7.83333C6.70724 7.83333 7.38552 7.55238 7.88562 7.05229C8.38571 6.55219 8.66667 5.87391 8.66667 5.16667C8.66667 4.45942 8.38571 3.78115 7.88562 3.28105C7.38552 2.78095 6.70724 2.5 6 2.5Z" fill="#F2F3F9" fill-opacity="0.5"/>
</svg>
